<svg width="1200" height="760" viewBox="0 0 1200 760" fill="none" xmlns="http://www.w3.org/2000/svg">
  <rect width="1200" height="760" rx="28" fill="#F5F7FA"/>
  <rect width="58" height="760" fill="#0C1D2E"/>
  <rect x="14" y="22" width="32" height="32" rx="8" fill="#063B5C"/>
  <path d="M29 43h-9V28h16v8h8l-16 16 1-9Z" fill="#E5812E"/>
  <path d="M36 34l22-22 2 11 11 2-22 22-2-10-11-3Z" fill="#E5812E"/>
  <rect x="86" y="64" width="1064" height="176" rx="22" fill="#22394F"/>
  <path d="M86 86c0-12 10-22 22-22h220v176H108c-12 0-22-10-22-22V86Z" fill="#172B40"/>
  <rect x="124" y="101" width="175" height="86" rx="14" fill="#fff"/>
  <path d="M192 149h-28v-28h33v13h15l-33 33 2-18Z" fill="#0B3C5D"/>
  <path d="M202 132l35-35 2 17 18 3-36 35-5-17-14-3Z" fill="#D77B2D"/>
  <text x="211" y="173" text-anchor="middle" fill="#0B3C5D" font-family="Poppins, Arial" font-size="25" font-weight="800">Quali</text>
  <text x="250" y="173" text-anchor="middle" fill="#D77B2D" font-family="Poppins, Arial" font-size="25" font-weight="800">Flow</text>
  <text x="212" y="191" text-anchor="middle" fill="#0B3C5D" font-family="Poppins, Arial" font-size="9" font-weight="700">PLANEM ENGENHARIA</text>
  <rect x="368" y="108" width="160" height="34" rx="17" fill="#42556A"/>
  <circle cx="386" cy="125" r="4" fill="#D99055"/>
  <text x="404" y="130" fill="#F2B27F" font-family="Poppins, Arial" font-size="14" font-weight="800">GESTAO INTEGRADA</text>
  <text x="368" y="181" fill="#fff" font-family="Poppins, Arial" font-size="38" font-weight="900">Centro de Controle da Obra</text>
  <text x="368" y="214" fill="#CAD4DF" font-family="Poppins, Arial" font-size="18">Boa tarde, Iara! Dashboard executivo do QualiFlow</text>
  <rect x="764" y="120" width="110" height="48" rx="10" fill="#39516A"/>
  <rect x="888" y="120" width="126" height="48" rx="10" fill="#fff"/>
  <rect x="1028" y="120" width="120" height="48" rx="10" fill="#D07B3C"/>
  <text x="801" y="150" fill="#fff" font-family="Poppins, Arial" font-size="15" font-weight="700">Atualizar</text>
  <text x="925" y="150" fill="#102236" font-family="Poppins, Arial" font-size="15" font-weight="800">Novo RDO</text>
  <text x="1052" y="150" fill="#fff" font-family="Poppins, Arial" font-size="15" font-weight="800">Inspecao</text>
  <g transform="translate(86 278)">
    <rect width="248" height="94" rx="16" fill="#fff" stroke="#D9E1EA"/>
    <rect width="248" height="4" fill="#2A66FF"/>
    <rect x="28" y="28" width="54" height="54" rx="14" fill="#DCE9FF"/>
    <text x="104" y="42" fill="#728094" font-family="Poppins, Arial" font-size="15" font-weight="700">Checklists ativos</text>
    <text x="104" y="78" fill="#102236" font-family="Poppins, Arial" font-size="36" font-weight="900">1</text>
  </g>
  <g transform="translate(362 278)">
    <rect width="248" height="94" rx="16" fill="#fff" stroke="#D9E1EA"/>
    <rect width="248" height="4" fill="#1FA850"/>
    <rect x="28" y="28" width="54" height="54" rx="14" fill="#DAFBE4"/>
    <text x="104" y="42" fill="#728094" font-family="Poppins, Arial" font-size="15" font-weight="700">Fluxo concluido</text>
    <text x="104" y="78" fill="#102236" font-family="Poppins, Arial" font-size="36" font-weight="900">0</text>
  </g>
  <g transform="translate(638 278)">
    <rect width="248" height="94" rx="16" fill="#fff" stroke="#D9E1EA"/>
    <rect width="248" height="4" fill="#D99000"/>
    <rect x="28" y="28" width="54" height="54" rx="14" fill="#FFF4B9"/>
    <text x="104" y="42" fill="#728094" font-family="Poppins, Arial" font-size="15" font-weight="700">Pendencias em campo</text>
    <text x="104" y="78" fill="#102236" font-family="Poppins, Arial" font-size="36" font-weight="900">1</text>
  </g>
  <g transform="translate(914 278)">
    <rect width="236" height="94" rx="16" fill="#fff" stroke="#D9E1EA"/>
    <rect width="236" height="4" fill="#5635FF"/>
    <rect x="28" y="28" width="54" height="54" rx="14" fill="#E5E4FF"/>
    <text x="104" y="42" fill="#728094" font-family="Poppins, Arial" font-size="15" font-weight="700">Obras monitoradas</text>
    <text x="104" y="78" fill="#102236" font-family="Poppins, Arial" font-size="36" font-weight="900">3</text>
  </g>
  <rect x="86" y="418" width="1064" height="174" rx="18" fill="#fff" stroke="#D9E1EA"/>
  <text x="112" y="463" fill="#102236" font-family="Poppins, Arial" font-size="25" font-weight="900">Diario de obra</text>
  <text x="112" y="493" fill="#728094" font-family="Poppins, Arial" font-size="16">Resumo operacional do dia.</text>
  <g transform="translate(112 525)">
    <rect width="182" height="52" rx="10" fill="#F8FAFC" stroke="#D9E1EA"/>
    <rect x="20" y="12" width="38" height="28" rx="8" fill="#DCE9FF"/>
    <text x="76" y="32" fill="#728094" font-family="Poppins, Arial" font-size="14" font-weight="700">Boletins</text>
    <text x="150" y="36" fill="#102236" font-family="Poppins, Arial" font-size="25" font-weight="900">0</text>
  </g>
  <g transform="translate(316 525)">
    <rect width="182" height="52" rx="10" fill="#F8FAFC" stroke="#D9E1EA"/>
    <rect x="20" y="12" width="38" height="28" rx="8" fill="#DAFBE4"/>
    <text x="76" y="32" fill="#728094" font-family="Poppins, Arial" font-size="14" font-weight="700">Enviados</text>
    <text x="150" y="36" fill="#102236" font-family="Poppins, Arial" font-size="25" font-weight="900">0</text>
  </g>
  <g transform="translate(520 525)">
    <rect width="182" height="52" rx="10" fill="#F8FAFC" stroke="#D9E1EA"/>
    <rect x="20" y="12" width="38" height="28" rx="8" fill="#E5E4FF"/>
    <text x="76" y="32" fill="#728094" font-family="Poppins, Arial" font-size="14" font-weight="700">Efetivo</text>
    <text x="150" y="36" fill="#102236" font-family="Poppins, Arial" font-size="25" font-weight="900">0</text>
  </g>
  <rect x="86" y="622" width="1064" height="90" rx="18" fill="#fff" stroke="#D9E1EA"/>
  <text x="112" y="674" fill="#102236" font-family="Poppins, Arial" font-size="25" font-weight="900">Leitura mensal da obra</text>
  <text x="402" y="674" fill="#728094" font-family="Poppins, Arial" font-size="16">Indicadores executivos para acompanhamento.</text>
</svg>
